<?xml version="1.0" encoding="iso-8859-1"?>
<!-- Generator: Adobe Illustrator 19.0.0, SVG Export Plug-In . SVG Version: 6.00 Build 0)  -->
<svg version="1.1" id="Capa_1" xmlns="http://www.w3.org/2000/svg" xmlns:xlink="http://www.w3.org/1999/xlink" x="0px" y="0px"
	 viewBox="0 0 512 512" style="enable-background:new 0 0 512 512;" xml:space="preserve">
<g>
	<g>
		<path d="M96.843,38.999c-18.296-6.445-45.062-13.257-82.299-8.745c-6.841,0.835-12.246,6.24-13.081,13.081
			c-4.526,37.222,2.3,63.003,8.862,81.606c4.043,10.734,9.096,20.799,15.077,30.158c8.826-12.929,18.336-25.397,29.147-36.808
			c23.234-24.523,50.927-43.967,79.737-58.521C122.869,51.517,110.675,44.21,96.843,38.999z"/>
	</g>
</g>
<g>
	<g>
		<path d="M374.814,227.509c-12.319-7.163-26.909-7.69-40.078-1.523c-13.667,6.431-23.291,19.087-25.752,33.853
			c-1.729,10.415,4.189,20.596,14.736,25.474c41.109,18.994,71.32,52.96,85.946,92.882c30.883-12.892,57.843-15.606,73.856-16.785
			C465.47,305.417,426.686,257.682,374.814,227.509z M344.565,270.151c-8.284,0-15-6.716-15-15c0-8.286,6.716-15,15-15
			s15,6.714,15,15C359.565,263.435,352.849,270.151,344.565,270.151z"/>
	</g>
</g>
<g>
	<g>
		<path d="M241.673,378.227l14.326,17.915l14.326-17.915C266.546,365.981,245.452,365.981,241.673,378.227z"/>
	</g>
</g>
<g>
	<g>
		<path d="M202.956,259.999c-2.476-14.927-12.1-27.583-25.752-33.999c-13.213-6.211-27.803-5.654-40.093,1.509
			c-51.586,30-90.689,78.437-108.805,134.196c26.003,2.904,51.394,8.912,73.753,18.179c14.736-41.255,45.518-75.835,86.234-94.616
			C198.781,280.434,204.67,270.268,202.956,259.999z M167.36,270.151c-8.284,0-15-6.716-15-15c0-8.285,6.716-15,15-15
			s15,6.714,15,15C182.36,263.435,175.644,270.151,167.36,270.151z"/>
	</g>
</g>
<g>
	<g>
		<path d="M435.595,138.929C387.475,88.13,325.329,60.151,257.36,60.151S124.451,88.13,76.331,138.93
			C24.783,193.335-2.375,268.803,1.785,346.001c0,0.007,0.007,0.011,0.007,0.011c21.194-59.996,64.23-111.868,120.231-144.43
			c20.962-12.202,45.703-13.198,67.939-2.725c22.573,10.605,38.481,31.567,42.568,56.06c3.984,23.921-8.745,47.007-31.67,57.598
			c-34.453,15.894-60.095,45.63-71.631,80.894c27.33,15.703,49.804,36.495,69.142,62.499c10.648,14.317,25.732,23.725,42.627,27.297
			v-57.781l-26.719-33.398c-2.124-2.666-3.281-5.962-3.281-9.375c0-24.814,20.186-45,45-45c24.814,0,45,20.186,45,45
			c0,3.413-1.157,6.709-3.281,9.375l-26.718,33.398v57.779c16.897-3.571,31.976-12.971,42.627-27.296
			c22.386-30.099,45.044-50.301,68.245-64.146c-12.57-36.304-39.551-64.819-70.734-79.219c-22.969-10.62-35.728-33.735-31.758-57.51
			c4.102-24.624,20.01-45.586,42.598-56.191c22.222-10.444,47.978-9.448,68.925,2.739c56.501,32.853,98.086,84.293,119.127,144.716
			c0.009-0.11,0.106-0.187,0.112-0.297C514.301,268.802,487.143,193.333,435.595,138.929z"/>
	</g>
</g>
<g>
	<g>
		<path d="M510.537,43.335c-0.836-6.841-6.241-12.246-13.082-13.081c-37.178-4.438-62.988,2.3-81.606,8.862
			c-13.636,5.136-26.774,12.427-38.169,20.676c28.795,14.553,56.474,33.995,79.697,58.513c10.82,11.418,20.339,23.893,29.171,36.832
			c6.017-9.423,11.122-19.579,15.229-30.489C508.222,106.352,515.063,80.585,510.537,43.335z"/>
	</g>
</g>
<g>
</g>
<g>
</g>
<g>
</g>
<g>
</g>
<g>
</g>
<g>
</g>
<g>
</g>
<g>
</g>
<g>
</g>
<g>
</g>
<g>
</g>
<g>
</g>
<g>
</g>
<g>
</g>
<g>
</g>
</svg>
